<svg id="svg" version="1.1" xmlns="http://www.w3.org/2000/svg"
    xmlns:xlink="http://www.w3.org/1999/xlink" width="32" height="32" viewBox="0 0 400 400">
    <g id="svgg">
        <path id="path0"
            d="M184.407 11.119 C 177.040 14.058,175.200 17.078,174.125 27.992 L 173.094 38.453 165.062 40.193 C 160.645 41.150,155.152 42.413,152.854 43.001 C 149.155 43.946,148.194 43.292,144.441 37.269 C 136.416 24.389,132.716 22.948,117.863 26.921 C 101.636 31.261,95.953 41.315,100.764 57.174 C 102.044 61.392,103.099 64.950,103.108 65.080 C 103.117 65.210,98.927 68.953,93.796 73.398 L 84.467 81.479 79.343 77.647 C 64.569 66.596,52.805 69.816,42.622 87.698 C 35.491 100.221,36.193 103.048,49.786 116.550 L 53.478 120.217 49.617 126.905 C 47.493 130.584,45.284 135.555,44.707 137.952 L 43.660 142.310 31.874 141.242 L 20.089 140.174 15.513 145.183 C 12.997 147.939,10.937 150.405,10.937 150.664 C 10.937 150.924,10.218 154.923,9.340 159.552 C 6.260 175.775,8.220 180.757,19.764 186.044 C 25.265 188.564,30.275 190.623,30.899 190.621 C 31.522 190.619,31.805 196.153,31.528 202.918 C 30.971 216.543,31.156 216.312,17.500 220.410 C 8.964 222.972,9.062 222.765,9.062 238.196 C 9.063 260.249,13.850 265.905,31.375 264.554 L 43.578 263.613 44.630 268.134 C 45.209 270.621,47.407 275.680,49.515 279.375 L 53.348 286.093 47.452 292.656 C 44.209 296.265,40.607 300.185,39.446 301.365 C 34.763 306.130,42.921 323.384,53.555 331.204 C 61.670 337.173,67.056 337.184,75.248 331.250 C 83.347 325.383,85.786 325.383,91.406 331.250 C 93.876 333.828,96.519 335.938,97.279 335.938 C 101.994 335.937,103.149 340.382,100.789 349.443 C 96.642 365.364,98.368 369.501,112.329 377.100 C 125.804 384.434,134.775 382.873,142.350 371.875 C 148.811 362.494,148.166 362.672,164.268 365.817 L 173.068 367.536 174.125 378.257 C 175.764 394.897,192.011 401.975,211.492 394.535 C 219.310 391.549,219.624 391.002,221.196 377.612 C 222.416 367.223,223.356 366.474,237.886 364.311 C 247.721 362.847,247.897 362.966,256.848 377.126 C 262.651 386.306,285.978 380.149,295.837 366.835 L 298.991 362.576 295.326 351.603 C 293.311 345.568,291.956 340.426,292.315 340.177 C 292.675 339.928,296.901 336.763,301.707 333.144 C 312.125 325.297,312.043 325.305,320.851 331.250 C 341.998 345.522,368.227 311.613,350.000 293.567 C 342.489 286.130,342.506 286.393,348.665 273.753 L 353.579 263.665 362.878 264.637 C 379.304 266.354,387.533 257.472,387.479 238.086 C 387.440 224.347,385.751 222.415,369.531 217.558 C 364.889 216.168,364.840 216.035,364.409 203.780 L 363.975 191.406 371.441 188.419 C 388.959 181.409,392.845 169.818,383.716 151.803 C 378.134 140.789,376.761 140.048,364.212 141.284 L 353.448 142.345 348.599 132.642 C 342.468 120.372,342.490 120.048,350.000 111.900 C 358.885 102.261,358.231 91.119,348.148 80.352 C 337.358 68.830,329.799 68.154,316.052 77.483 L 310.570 81.204 307.515 77.321 C 305.835 75.185,303.457 73.438,302.230 73.438 C 301.004 73.438,299.998 72.910,299.996 72.266 C 299.993 71.621,297.952 69.728,295.461 68.059 L 290.930 65.024 294.684 56.536 C 299.773 45.029,299.496 43.099,291.664 35.489 C 279.651 23.816,254.979 21.312,254.624 31.729 C 254.589 32.755,252.578 35.910,250.155 38.742 L 245.749 43.890 234.213 40.894 L 222.677 37.897 221.552 31.058 C 218.719 13.830,218.861 14.151,213.018 11.709 C 206.761 9.095,190.330 8.756,184.407 11.119 M214.947 84.500 C 231.717 87.551,254.688 95.762,254.688 98.705 C 254.688 99.417,255.736 100.000,257.018 100.000 C 261.151 100.000,292.188 126.036,292.188 129.504 C 292.188 130.140,293.440 132.024,294.971 133.690 C 297.307 136.232,301.723 143.962,307.796 156.138 C 327.867 196.380,316.493 254.555,282.031 287.914 C 270.381 299.191,269.423 300.000,267.714 300.000 C 266.776 300.000,265.158 301.024,264.120 302.275 C 261.119 305.891,235.850 317.613,228.125 318.973 C 198.893 324.119,198.166 324.119,168.750 318.948 C 103.621 307.500,57.943 218.725,86.607 159.306 C 88.817 154.725,90.625 150.456,90.625 149.818 C 90.625 145.010,120.319 109.375,124.326 109.375 C 124.937 109.375,126.217 108.360,127.171 107.120 C 130.218 103.159,150.409 92.751,161.719 89.312 C 184.095 82.509,197.397 81.306,214.947 84.500 M184.375 88.584 C 171.773 90.706,156.930 94.084,155.531 95.147 C 154.637 95.825,150.806 97.585,147.018 99.058 C 139.976 101.795,137.904 103.192,122.064 115.877 C 80.748 148.965,70.794 209.253,97.984 261.719 C 104.239 273.788,129.802 300.000,135.317 300.000 C 136.518 300.000,137.504 300.527,137.510 301.172 C 137.528 303.272,147.367 308.066,161.719 312.968 C 191.125 323.012,232.767 318.914,254.771 303.811 C 257.825 301.715,260.808 300.000,261.400 300.000 C 266.470 300.000,300.000 263.614,300.000 258.112 C 300.000 257.344,301.822 253.288,304.050 249.099 C 314.612 229.233,314.862 179.943,304.508 158.735 C 302.029 153.656,300.000 148.835,300.000 148.022 C 300.000 147.209,297.891 143.880,295.313 140.625 C 292.734 137.370,290.625 134.246,290.625 133.684 C 290.625 129.887,255.422 100.000,250.950 100.000 C 250.474 100.000,246.375 98.300,241.840 96.222 C 227.964 89.864,199.352 86.061,184.375 88.584 M224.219 133.387 C 235.425 138.073,237.500 143.440,237.500 167.741 L 237.500 188.651 244.086 189.534 C 254.583 190.942,254.804 191.775,254.328 228.075 L 253.906 260.156 199.404 260.567 C 159.227 260.870,144.316 260.493,142.674 259.131 C 140.853 257.619,140.535 251.619,140.927 226.157 C 141.460 191.538,142.286 189.063,153.298 189.063 L 157.813 189.063 157.813 170.212 C 157.813 150.064,161.172 137.234,166.925 135.408 C 168.359 134.953,172.344 133.468,175.781 132.108 C 184.211 128.774,215.138 129.591,224.219 133.387 M182.292 154.167 C 181.719 154.740,181.250 162.826,181.250 172.135 L 181.250 189.063 198.438 189.063 L 215.625 189.063 215.625 172.042 C 215.625 157.963,215.198 154.858,213.153 154.073 C 209.797 152.785,183.594 152.864,182.292 154.167 "
            stroke="none" fill="#0078a5" fill-rule="evenodd"></path>
    </g>
</svg>